Coordinates
version=1
nRows=12
nColumns=24
inDegrees=yes

Units are S.I. units (second, meters, Newtons, ...)
Angles are in degrees.

endheader
time	pelvis_tilt	pelvis_list	pelvis_rotation	pelvis_tx	pelvis_ty	pelvis_tz	hip_flexion_r	hip_adduction_r	hip_rotation_r	knee_angle_r	ankle_angle_r	subtalar_angle_r	mtp_angle_r	hip_flexion_l	hip_adduction_l	hip_rotation_l	knee_angle_l	ankle_angle_l	subtalar_angle_l	mtp_angle_l	lumbar_extension	lumbar_bending	lumbar_rotation
      1.30750000	      0.02174490	     -1.10367107	     -4.68731141	      0.03702982	      0.96609819	      0.36617432	    -22.39883791	      0.69319622	     -1.91971305	     -5.03165780	     16.89360300	      1.69727827	      2.71852171	     23.35351666	     -1.96579728	     -3.66886624	      5.90636992	     -2.05291627	     -3.52317785	      2.78455593	    -16.06215316	      6.30613624	      8.69193765
      1.31166667	     -0.01116879	     -0.93150526	     -4.71706155	      0.04307353	      0.96554536	      0.36568406	    -22.49556714	      0.42854099	     -2.03210180	     -5.46229218	     16.74055671	      1.81140176	      2.98563111	     23.43014001	     -1.75332356	     -3.35889794	      5.31316940	     -2.55638319	     -4.16198410	      2.90624397	    -15.96962351	      6.06391257	      8.68603305
      1.31583333	     -0.04831029	     -0.74351621	     -4.74577415	      0.04916258	      0.96503155	      0.36518613	    -22.58372309	      0.14915473	     -2.13751069	     -5.89648061	     16.55547690	      1.90142887	      3.27376149	     23.50927658	     -1.52151315	     -3.06510199	      4.71222044	     -3.14194861	     -4.84643546	      3.03149694	    -15.86633326	      5.80427522	      8.67998278
      1.32000000	     -0.09647715	     -0.54389653	     -4.77691915	      0.05529445	      0.96454456	      0.36466812	    -22.64208099	     -0.14456462	     -2.25033149	     -6.36738310	     16.34098868	      1.97836215	      3.59844098	     23.59429267	     -1.27510659	     -2.77916667	      4.11514211	     -3.79472335	     -5.58621890	      3.16422972	    -15.74338320	      5.53026148	      8.67119376
      1.32416667	     -0.14848365	     -0.32995674	     -4.81106714	      0.06145737	      0.96409968	      0.36413559	    -22.67813236	     -0.45555515	     -2.36617382	     -6.86933517	     16.09297320	      2.04920908	      3.98631629	     23.67678815	     -1.01178187	     -2.49034343	      3.52523400	     -4.51934246	     -6.39033445	      3.31333852	    -15.62239709	      5.24250847	      8.66518330
      1.32833333	     -0.20791384	     -0.10453655	     -4.84230724	      0.06766650	      0.96369076	      0.36359975	    -22.70440909	     -0.77530247	     -2.46993314	     -7.37094499	     15.82325146	      2.09704114	      4.37006649	     23.77855639	     -0.73429422	     -2.26825863	      2.90722308	     -5.29319286	     -7.16581640	      3.44681454	    -15.47297692	      4.93839299	      8.65182460
      1.33250000	     -0.27997072	      0.14069124	     -4.87833072	      0.07389997	      0.96331256	      0.36303936	    -22.69334988	     -1.11915851	     -2.57678390	     -7.91511987	     15.51134856	      2.13770941	      4.80631631	     23.88570152	     -0.43586484	     -2.02438642	      2.30317089	     -6.11425333	     -8.00093943	      3.58570506	    -15.33148274	      4.61887104	      8.64031522
      1.33666667	     -0.31145749	      0.40190197	     -4.89207541	      0.08018741	      0.96302017	      0.36245049	    -22.71673499	     -1.47644207	     -2.75086638	     -8.46516773	     15.04180342	      2.07044785	     10.83854319	     23.96176567	     -0.10859721	     -1.84741553	      1.67326012	     -6.92749096	     -8.75989315	      5.43473287	    -15.20541556	      4.27102915	      8.58301276
      1.34083333	     -0.40342931	      0.65649765	     -4.94181780	      0.08647456	      0.96272365	      0.36188954	    -22.64717206	     -1.83443065	     -2.83005368	     -9.06969523	     14.63991785	      2.06856102	     10.91737137	     24.09777676	      0.19555210	     -1.67775025	      1.04016218	     -7.76787598	     -9.59398685	      5.40146494	    -15.02092442	      3.93369908	      8.60698250
      1.34500000	     -0.48670055	      0.93244461	     -4.97557300	      0.09279547	      0.96247421	      0.36129408	    -22.57560384	     -2.21010849	     -2.93371984	     -9.69628986	     14.24883316	      2.07030896	     11.04933598	     24.23538661	      0.53015543	     -1.54099218	      0.38590311	     -8.62698783	    -10.40573082	      5.37495682	    -14.83647347	      3.58018637	      8.58483033
      1.34916667	     -0.56723790	      1.22236945	     -5.00775576	      0.09913606	      0.96227655	      0.36068708	    -22.48252136	     -2.60157540	     -3.04849898	    -10.36485470	     13.79916269	      2.05698228	     11.24296317	     24.37080269	      0.88108768	     -1.40176943	     -0.27656299	     -9.45201325	    -11.21806394	      5.34999273	    -14.65975923	      3.20823889	      8.56381909
      1.35333333	     -0.64627939	      1.52528162	     -5.03564706	      0.10549869	      0.96212507	      0.36005336	    -22.37008655	     -3.00789886	     -3.17251380	    -11.06934179	     13.31048922	      2.04238404	     11.51000729	     24.50812421	      1.24920785	     -1.26864240	     -0.95171720	    -10.23453977	    -12.01846897	      5.32132580	    -14.48010630	      2.82245651	      8.53687260
